<svg height="512pt" viewBox="0 0 512 512.00062" width="512pt" xmlns="http://www.w3.org/2000/svg"><path d="m511.996094 257.632812c-.203125 31.71875-6.167969 62.0625-16.894532 90.023438-37.078124 96.6875-131.074218 165.039062-240.730468 164.339844-109.660156-.699219-202.777344-70.246094-238.621094-167.394532-10.371094-28.097656-15.945312-58.511718-15.74609375-90.230468.90234375-141.378906 116.24999975-255.265625 257.62890575-254.36718775 141.378907.90234375 255.265626 116.24999975 254.363282 257.62890575zm0 0" fill="#9e69e2"/><path d="m512 256c0 26.050781-3.890625 51.191406-11.128906 74.871094-32.011719 104.847656-129.539063 181.128906-244.871094 181.128906-104.558594 0-194.488281-62.699219-234.230469-152.550781-14-31.628907-21.769531-66.628907-21.769531-103.449219 0-46.21875 12.25-89.570312 33.679688-127 44.121093 77.070312 127.160156 129 222.320312 129s178.210938-51.929688 222.320312-129c21.429688 37.429688 33.679688 80.78125 33.679688 127zm0 0" fill="#8e4fd2"/><path d="m448.640625 195.230469v229.371093c-46.921875 53.570313-115.828125 87.398438-192.640625 87.398438-72.839844 0-138.578125-30.417969-185.199219-79.25v-237.519531c0-1.480469.160157-2.929688.460938-4.320313.109375-.53125.238281-1.050781.398437-1.570312.039063-.148438.089844-.308594.140625-.460938.179688-.558594.390625-1.097656.609375-1.636718.519532-1.230469 1.160156-2.402344 1.902344-3.492188.359375-.539062.75-1.070312 1.167969-1.570312.421875-.507813.859375-.988282 1.332031-1.460938.457031-.457031.949219-.910156 1.457031-1.328125.5-.421875 1.03125-.820313 1.582031-1.179687.539063-.371094 1.109376-.710938 1.6875-1.03125.222657-.121094.441407-.238282.660157-.339844.222656-.109375.453125-.21875.679687-.320313.210938-.097656.433594-.1875.652344-.289062.238281-.101563.488281-.191407.738281-.28125.621094-.230469 1.269531-.429688 1.921875-.597657.328125-.089843.648438-.160156.980469-.230468h.027344c.28125-.0625.570312-.121094.871093-.160156.640626-.109376 1.289063-.179688 1.949219-.210938.210938-.007812.429688-.019531.640625-.03125.21875-.007812.441406-.007812.660156-.007812h336.800782c.21875 0 .441406 0 .660156.007812.210938.011719.429688.023438.640625.03125.660156.03125 1.308594.101562 1.949219.210938.300781.039062.589844.097656.871094.160156h.027343c.332031.070312.652344.140625.980469.230468.28125.070313.570312.148438.851562.238282.277344.089844.558594.179687.828126.28125.210937.058594.421874.140625.621093.230468.601563.230469 1.179688.488282 1.75.769532.441407.21875.878907.449218 1.300781.710937.199219.117188.398438.238281.589844.367188.6875.429687 1.347656.921875 1.980469 1.441406.507813.417969 1 .871094 1.457031 1.328125.472656.472656.910156.953125 1.332032 1.460938.410156.5.800781 1.03125 1.167968 1.570312.742188 1.089844 1.382813 2.261719 1.902344 3.492188.230469.527343.429688 1.078124.609375 1.636718.050781.152344.101563.3125.140625.460938.160156.511718.289062 1.039062.398438 1.570312.300781 1.390625.460937 2.839844.460937 4.320313zm0 0" fill="#d0f6ff"/><path d="m448.640625 195.230469v229.371093c-46.921875 53.570313-115.828125 87.398438-192.640625 87.398438v-337.300781h172.121094c.21875 0 .441406 0 .660156.019531.210938.011719.429688.023438.640625.03125.660156.03125 1.308594.101562 1.949219.210938.300781.039062.589844.097656.871094.160156h.027343c.332031.070312.652344.140625.980469.230468.28125.070313.570312.148438.851562.238282.277344.089844.558594.179687.828126.28125.210937.058594.421874.140625.621093.230468.601563.21875 1.179688.480469 1.75.769532.441407.21875.878907.449218 1.300781.710937.199219.117188.398438.238281.589844.367188.6875.429687 1.347656.921875 1.980469 1.441406.507813.417969 1 .859375 1.457031 1.328125.472656.472656.910156.953125 1.332032 1.460938.410156.5.800781 1.03125 1.167968 1.570312.742188 1.089844 1.382813 2.261719 1.902344 3.492188.230469.527343.429688 1.078124.609375 1.636718.050781.152344.101563.3125.140625.460938.160156.511718.289062 1.039062.398438 1.570312.300781 1.390625.460937 2.839844.460937 4.320313zm0 0" fill="#fff"/><path d="m448.640625 195.230469v53.769531h-377.839844v-53.769531c0-1.480469.160157-2.929688.460938-4.320313.109375-.53125.238281-1.050781.398437-1.570312.039063-.148438.089844-.308594.140625-.460938.179688-.558594.390625-1.097656.609375-1.636718.519532-1.230469 1.160156-2.402344 1.902344-3.492188.359375-.539062.75-1.070312 1.167969-1.570312.421875-.507813.859375-.988282 1.332031-1.460938.457031-.46875.949219-.910156 1.457031-1.328125.5-.421875 1.03125-.820313 1.582031-1.179687.539063-.371094 1.109376-.71875 1.6875-1.03125.222657-.121094.441407-.238282.660157-.339844.222656-.109375.453125-.21875.679687-.320313.210938-.097656.433594-.1875.652344-.289062.238281-.101563.488281-.191407.738281-.28125.621094-.230469 1.269531-.429688 1.921875-.597657.328125-.089843.648438-.160156.980469-.230468h.027344c.28125-.0625.570312-.121094.871093-.160156.640626-.109376 1.289063-.179688 1.949219-.210938.210938-.007812.429688-.019531.640625-.03125.21875-.019531.441406-.019531.660156-.019531h336.800782c.21875 0 .441406 0 .660156.019531.210938.011719.429688.023438.640625.03125.660156.03125 1.308594.101562 1.949219.210938.300781.039062.589844.097656.871094.160156h.027343c.332031.070312.652344.140625.980469.230468.28125.070313.570312.148438.851562.238282.277344.089844.558594.179687.828126.28125.210937.058594.421874.140625.621093.230468.601563.21875 1.179688.480469 1.75.769532.441407.21875.878907.449218 1.300781.710937.199219.117188.398438.238281.589844.367188.6875.429687 1.347656.921875 1.980469 1.441406.507813.417969 1 .859375 1.457031 1.328125.472656.472656.910156.953125 1.332032 1.460938.417968.5.808593 1.03125 1.167968 1.570312.742188 1.089844 1.382813 2.261719 1.902344 3.492188.230469.527343.429688 1.078124.609375 1.636718.050781.152344.101563.3125.140625.460938.160156.511718.289062 1.039062.398438 1.570312.300781 1.390625.460937 2.839844.460937 4.320313zm0 0" fill="#dd1265"/><path d="m448.640625 195.230469v53.769531h-192.640625v-74.300781h172.121094c.21875 0 .441406 0 .660156.019531.210938.011719.429688.023438.640625.03125.660156.03125 1.308594.101562 1.949219.210938.300781.039062.589844.097656.871094.160156h.027343c.332031.070312.652344.140625.980469.230468.28125.070313.570312.148438.851562.238282.277344.089844.558594.179687.828126.28125.210937.058594.421874.140625.621093.230468.601563.21875 1.179688.480469 1.75.769532.441407.21875.878907.449218 1.300781.710937.199219.117188.398438.238281.589844.367188.6875.429687 1.347656.921875 1.980469 1.441406.507813.417969 1 .859375 1.457031 1.328125.472656.472656.910156.953125 1.332032 1.460938.410156.5.800781 1.03125 1.167968 1.570312.742188 1.089844 1.382813 2.261719 1.902344 3.492188.230469.527343.429688 1.078124.609375 1.636718.050781.152344.101563.3125.140625.460938.160156.511718.289062 1.039062.398438 1.570312.300781 1.390625.460937 2.839844.460937 4.320313zm0 0" fill="#ff3445"/><path d="m125.988281 212.914062c0 8.792969-7.128906 15.921876-15.921875 15.921876-8.792968 0-15.917968-7.128907-15.917968-15.921876 0-8.792968 7.125-15.921874 15.917968-15.921874 8.792969 0 15.921875 7.128906 15.921875 15.921874zm0 0" fill="#fff"/><path d="m171.628906 212.914062c0 8.792969-7.128906 15.921876-15.921875 15.921876s-15.921875-7.128907-15.921875-15.921876c0-8.792968 7.128906-15.921874 15.921875-15.921874s15.921875 7.128906 15.921875 15.921874zm0 0" fill="#fff"/><path d="m217.265625 212.914062c0 8.792969-7.128906 15.921876-15.921875 15.921876s-15.917969-7.128907-15.917969-15.921876c0-8.792968 7.125-15.921874 15.917969-15.921874s15.921875 7.128906 15.921875 15.921874zm0 0" fill="#fff"/><path d="m103.616576 319.288753h113.253906" fill="none" stroke="#535e89" stroke-miterlimit="10" stroke-width="15" transform="translate(.000612 .000309)"/><path d="m103.616576 349.937191h113.253906" fill="none" stroke="#535e89" stroke-miterlimit="10" stroke-width="15" transform="translate(.000612 .000309)"/><path d="m103.616576 380.581722h113.253906" fill="none" stroke="#535e89" stroke-miterlimit="10" stroke-width="15" transform="translate(.000612 .000309)"/><path d="m440.683594 106.003906c11.140625 0 20.171875 9.035156 20.171875 20.175782h-132.253907c0-11.140626-9.03125-20.175782-20.175781-20.175782zm0 0" fill="#ffd112"/><path d="m420.941406 126.175781v2.796875l.011719 121.296875.023437 69.710938v69.121093h-132.253906l-.007812-69.121093-.015625-69.710938-.011719-124.09375c0-11.140625 9.035156-20.175781 20.175781-20.175781h132.253907c-11.140626 0-20.175782 9.035156-20.175782 20.175781zm0 0" fill="#ffd112"/><path d="m420.941406 126.175781v2.796875l.011719 121.296875.023437 69.710938v69.121093h-64.472656v-283.101562h84.613282c-11.140626 0-20.175782 9.035156-20.175782 20.175781zm0 0" fill="#ffe955"/><g fill="#323b5a"><path d="m311.917969 183.058594h85.070312v10.5625h-85.070312zm0 0"/><path d="m311.917969 208.410156h85.070312v10.5625h-85.070312zm0 0"/><path d="m311.917969 233.761719h85.070312v10.5625h-85.070312zm0 0"/><path d="m356.683594 259.113281h40.304687v10.5625h-40.304687zm0 0"/></g><path d="m391.128906 301.910156v22.902344c0 3.203125-2.597656 5.800781-5.800781 5.800781h-59.523437c-3.203126 0-5.800782-2.597656-5.800782-5.800781v-22.902344c0-3.203125 2.597656-5.804687 5.800782-5.804687h59.523437c3.203125 0 5.800781 2.601562 5.800781 5.804687zm0 0" fill="#dd1265"/><path d="m391.128906 301.910156v22.902344c0 3.203125-2.597656 5.800781-5.800781 5.800781h-28.824219v-34.507812h28.824219c3.203125 0 5.800781 2.601562 5.800781 5.804687zm0 0" fill="#ff3445"/><path d="m338.03125 304.832031h-6.824219c-.703125 0-1.265625.5625-1.265625 1.269531v14.703126c0 .695312.5625 1.257812 1.265625 1.257812h3.167969c.699219 0 1.269531-.5625 1.269531-1.257812v-1.945313c0-.695313.5625-1.265625 1.261719-1.265625h1.125c4.472656 0 7.050781-2.410156 7.050781-6.59375 0-3.925781-2.578125-6.167969-7.050781-6.167969zm-.300781 8.4375h-.824219c-.699219 0-1.261719-.570312-1.261719-1.269531v-1.574219c0-.699219.5625-1.269531 1.261719-1.269531h.824219c1.230469 0 1.941406.738281 1.941406 2.019531 0 1.324219-.710937 2.09375-1.941406 2.09375zm0 0" fill="#fff"/><path d="m363.292969 320.324219-5.980469-14.703125c-.195312-.480469-.65625-.789063-1.175781-.789063h-4.15625c-.511719 0-.972657.304688-1.167969.773438l-6.210938 14.707031c-.351562.828125.261719 1.753906 1.167969 1.753906h3.058594c.535156 0 1.003906-.332031 1.1875-.832031l.28125-.769531c.179687-.5.65625-.828125 1.191406-.828125h4.683594c.535156 0 1.015625.335937 1.191406.84375l.265625.746093c.175782.5.65625.835938 1.191406.835938h3.300782c.898437.003906 1.507812-.90625 1.171875-1.738281zm-9.417969-4.773438c-.714844 0-1.265625-.59375-1.265625-1.269531 0-.140625.027344-.289062.078125-.429688.40625-1.121093 1.992188-1.113281 2.386719.015626.046875.140624.070312.28125.070312.421874 0 .671876-.542969 1.261719-1.269531 1.261719zm0 0" fill="#fff"/><path d="m378.128906 304.832031h-2.816406c-.480469 0-.914062.269531-1.125.699219l-1.890625 3.738281c-.464844.914063-1.773437.929688-2.25.011719l-1.964844-3.765625c-.21875-.425781-.65625-.683594-1.128906-.683594h-2.816406c-.949219 0-1.5625 1.011719-1.121094 1.851563l5.175781 9.871094c.09375.175781.148438.382812.148438.585937v3.664063c0 .695312.5625 1.257812 1.261718 1.257812h3.175782c.695312 0 1.265625-.5625 1.265625-1.257812v-3.789063c0-.207031.042969-.402344.144531-.585937l5.0625-9.746094c.445312-.84375-.167969-1.851563-1.121094-1.851563zm0 0" fill="#fff"/><path d="m340.574219 155.464844c-.691407-.546875-.71875-1.613282-.078125-2.222656.886718-.847657 1.394531-1.988282 1.394531-3.234376 0-3.167968-3.21875-5.238281-8.21875-5.238281h-9.015625c-.816406 0-1.476562.660157-1.476562 1.480469v17.765625c0 .816406.660156 1.480469 1.476562 1.480469h9.523438c5.054687 0 8.335937-2.277344 8.335937-5.824219.003906-1.734375-.722656-3.234375-1.941406-4.207031zm-9.085938-5.667969h1.804688c.941406 0 1.5625.5625 1.5625 1.449219 0 .917968-.621094 1.507812-1.5625 1.507812h-1.804688c-.40625 0-.78125-.167968-1.046875-.4375-.269531-.265625-.429687-.632812-.429687-1.042968 0-.816407.660156-1.476563 1.476562-1.476563zm1.804688 10.675781h-1.804688c-.816406 0-1.480469-.664062-1.480469-1.480468v-.210938c0-.816406.664063-1.476562 1.480469-1.476562h1.804688c1.265625 0 2.097656.589843 2.097656 1.511718 0 1-.832031 1.65625-2.097656 1.65625zm0 0" fill="#323b5a"/><path d="m349.960938 144.769531h-3.902344c-.816406 0-1.476563.660157-1.476563 1.476563v17.769531c0 .816406.660157 1.480469 1.476563 1.480469h3.902344c.816406 0 1.480468-.664063 1.480468-1.480469v-17.769531c0-.816406-.664062-1.476563-1.480468-1.476563zm0 0" fill="#323b5a"/><path d="m368.410156 159.789062h-5.675781c-.816406 0-1.476563-.660156-1.476563-1.480468v-12.0625c0-.816406-.664062-1.476563-1.480468-1.476563h-3.902344c-.816406 0-1.476562.660157-1.476562 1.476563v17.769531c0 .816406.660156 1.480469 1.476562 1.480469h12.535156c.816406 0 1.480469-.664063 1.480469-1.480469v-2.746094c0-.816406-.660156-1.480469-1.480469-1.480469zm0 0" fill="#323b5a"/><path d="m385.679688 159.789062h-5.675782c-.816406 0-1.480468-.660156-1.480468-1.480468v-12.0625c0-.816406-.660157-1.476563-1.476563-1.476563h-3.902344c-.816406 0-1.480469.660157-1.480469 1.476563v17.769531c0 .816406.664063 1.480469 1.480469 1.480469h12.535157c.816406 0 1.480468-.664063 1.480468-1.480469v-2.746094c0-.816406-.664062-1.480469-1.480468-1.480469zm0 0" fill="#323b5a"/></svg>